<?xml version="1.0" encoding="utf-8"?>
<!-- Generator: Adobe Illustrator 24.1.0, SVG Export Plug-In . SVG Version: 6.00 Build 0)  -->
<svg version="1.1" id="Layer_1" xmlns="http://www.w3.org/2000/svg" xmlns:xlink="http://www.w3.org/1999/xlink" x="0px" y="0px"
	 viewBox="0 0 512 512" style="enable-background:new 0 0 512 512;" xml:space="preserve">
<style type="text/css">
	.st0{fill:#0E55A5;}
</style>
<path class="st0" d="M507.5,148.9L368.9,4.9c-4.5-4.7-11.5-6.2-17.5-3.7c-6.1,2.5-10,8.3-10,14.8v69.3H336
	c-114.7,0-208,93.3-208,208v32c0,7.4,5.2,13.6,12.5,15.3c1.2,0.3,2.3,0.4,3.5,0.4c6,0,11.8-3.5,14.6-9.1c30-60,90.3-97.3,157.4-97.3
	h25.3V304c0,6.5,4,12.4,10,14.8c6,2.5,13,1,17.5-3.7l138.7-144C513.5,164.9,513.5,155.1,507.5,148.9z"/>
<path class="st0" d="M448,512H64c-35.3,0-64-28.7-64-64V149.3c0-35.3,28.7-64,64-64h64c11.8,0,21.3,9.5,21.3,21.3S139.8,128,128,128
	H64c-11.8,0-21.3,9.6-21.3,21.3V448c0,11.8,9.6,21.3,21.3,21.3h384c11.8,0,21.3-9.6,21.3-21.3V277.3c0-11.8,9.5-21.3,21.3-21.3
	c11.8,0,21.3,9.5,21.3,21.3V448C512,483.3,483.3,512,448,512z"/>
</svg>
