<?xml version="1.0" standalone="no"?>
<!DOCTYPE svg PUBLIC "-//W3C//DTD SVG 20010904//EN"
 "http://www.w3.org/TR/2001/REC-SVG-20010904/DTD/svg10.dtd">
<svg version="1.0" xmlns="http://www.w3.org/2000/svg"
 width="512.000000pt" height="512.000000pt" viewBox="0 0 512.000000 512.000000"
 preserveAspectRatio="xMidYMid meet">

<g transform="translate(0.000000,512.000000) scale(0.100000,-0.100000)"
fill="#000000" stroke="none">
<path d="M614 5105 c-149 -32 -267 -99 -384 -215 -118 -118 -183 -235 -215
-388 -22 -100 -22 -3784 0 -3884 32 -153 97 -270 215 -388 89 -89 157 -135
260 -177 136 -54 86 -53 1558 -53 l1363 0 62 26 c77 33 184 106 291 200 110
95 1032 1018 1127 1126 97 111 170 217 203 295 l26 62 0 1363 c0 1472 1 1422
-53 1558 -42 103 -88 171 -177 260 -118 118 -235 183 -388 215 -97 21 -3794
21 -3888 0z m3811 -399 c148 -39 253 -149 284 -296 9 -41 11 -391 9 -1380 -3
-1258 -4 -1327 -21 -1353 -20 -32 -65 -62 -117 -79 -23 -7 -183 -13 -472 -17
l-436 -6 -43 -30 c-23 -16 -53 -50 -66 -74 -23 -44 -23 -45 -23 -435 0 -221
-5 -419 -10 -455 -14 -81 -42 -136 -83 -161 -31 -20 -59 -20 -1367 -20 -1082
0 -1344 3 -1385 14 -143 38 -243 138 -281 281 -20 74 -20 3656 0 3730 37 140
137 242 276 281 68 19 3664 19 3735 0z"/>
<path d="M1330 3543 c-42 -7 -102 -55 -127 -102 -41 -78 -27 -176 34 -232 67
-63 -29 -59 1325 -59 l1233 0 40 21 c90 49 130 161 90 256 -22 52 -42 72 -100
99 l-50 24 -1210 -2 c-665 0 -1221 -3 -1235 -5z"/>
<path d="M1286 2539 c-50 -27 -82 -65 -97 -117 -26 -93 13 -191 94 -234 l42
-23 1040 0 c981 0 1042 1 1073 18 147 80 147 282 0 358 -36 18 -75 19 -1075
19 -1028 0 -1039 0 -1077 -21z"/>
</g>
</svg>
