<?xml version="1.0" encoding="iso-8859-1"?>
<!-- Generator: Adobe Illustrator 19.0.0, SVG Export Plug-In . SVG Version: 6.00 Build 0)  -->
<svg version="1.1" id="Capa_1" xmlns="http://www.w3.org/2000/svg" xmlns:xlink="http://www.w3.org/1999/xlink" x="0px" y="0px"
	 viewBox="0 0 508.033 508.033" style="enable-background:new 0 0 508.033 508.033;" xml:space="preserve">
<g>
	<path style="fill:#334A5E;" d="M23.917,161.7c-11.8,0-21.4,9.6-21.4,21.4v303.4c0,11.8,9.6,21.4,21.4,21.4h35.7V161.7H23.917z"/>
	<path style="fill:#334A5E;" d="M484.117,161.7h-35.7v346.2h35.7c11.8,0,21.4-9.6,21.4-21.4V183.1
		C505.517,171.3,495.917,161.7,484.117,161.7z"/>
</g>
<path style="fill:#40596B;" d="M59.617,161.7v346.2c2.3,0.3,388.9,0,388.9,0V161.7H59.617z"/>
<g>
	<path style="fill:#CDD6E0;" d="M396.517,62.6h-285c-11.6,0-21,9.4-21,21v78.2h326.9V83.5C417.517,71.9,408.117,62.6,396.517,62.6z"
		/>
	<path style="fill:#CDD6E0;" d="M408.317,359.8h-308.6c-11.8,0-21.4,9.6-21.4,21.4V508h351.2V381.1
		C429.617,369.3,420.117,359.8,408.317,359.8z"/>
</g>
<rect x="108.417" y="384.2" style="fill:#F2F2F2;" width="291.1" height="123.7"/>
<circle style="fill:#CDD6E0;" cx="318.917" cy="222.7" r="12.1"/>
<circle style="fill:#FF7058;" cx="353.217" cy="222.7" r="12.1"/>
<circle style="fill:#FFD15C;" cx="387.517" cy="222.7" r="12.1"/>
<path style="fill:#F2F2F2;" d="M343.617,0h-213.8c-11.8,0-21.4,9.6-21.4,21.4v140.4h291.1V56L343.617,0z"/>
<g>
	<polygon style="fill:#CDD6E0;" points="343.617,56 399.617,56 343.617,0 	"/>
	<rect x="128.417" y="410.1" style="fill:#CDD6E0;" width="251.1" height="22.8"/>
	<rect x="128.417" y="459.1" style="fill:#CDD6E0;" width="251.1" height="22.8"/>
</g>
<g>
</g>
<g>
</g>
<g>
</g>
<g>
</g>
<g>
</g>
<g>
</g>
<g>
</g>
<g>
</g>
<g>
</g>
<g>
</g>
<g>
</g>
<g>
</g>
<g>
</g>
<g>
</g>
<g>
</g>
</svg>
