<svg xmlns="http://www.w3.org/2000/svg" width="25.545" height="28.398" viewBox="0 0 25.545 28.398">
  <g id="speaker" transform="translate(0 2.301)">
    <g id="Group_87" data-name="Group 87" transform="translate(0 -2.301)">
      <g id="Group_86" data-name="Group 86">
        <path id="Path_139" data-name="Path 139" d="M38.387,0a.955.955,0,0,1,.562.183L48.88,7.392a.94.94,0,0,0,.556.18h5.976a1.422,1.422,0,0,1,1.42,1.42V19.406a1.421,1.421,0,0,1-1.42,1.42H49.436a.941.941,0,0,0-.556.18l-9.932,7.209a.953.953,0,0,1-.561.183.963.963,0,0,1-.961-.964V.959A.961.961,0,0,1,38.387,0Zm-.014,27.435c0,.005,0,.017.014.017l9.936-7.211a1.88,1.88,0,0,1,1.112-.361h5.976a.474.474,0,0,0,.473-.473V8.992a.474.474,0,0,0-.473-.474H49.436a1.879,1.879,0,0,1-1.112-.361L38.373.959Z" transform="translate(-31.287)" fill="#fff"/>
        <path id="Path_140" data-name="Path 140" d="M584.665,249.133a.473.473,0,0,1,.21.636,9.231,9.231,0,0,0,0,8.037.473.473,0,0,1-.846.425,10.209,10.209,0,0,1,0-8.888A.474.474,0,0,1,584.665,249.133Z" transform="translate(-580.177 -239.588)" fill="#fff"/>
        <path id="Path_141" data-name="Path 141" d="M638.368,195.772a.473.473,0,0,1,.795.514,11.53,11.53,0,0,0,0,12.028.473.473,0,1,1-.795.514A12.517,12.517,0,0,1,638.368,195.772Z" transform="translate(-636.53 -188.102)" fill="#fff"/>
      </g>
    </g>
  </g>
</svg>
