<?xml version="1.0" encoding="utf-8"?>
<!-- Generator: Adobe Illustrator 16.0.3, SVG Export Plug-In . SVG Version: 6.00 Build 0)  -->
<!DOCTYPE svg PUBLIC "-//W3C//DTD SVG 1.1//EN" "http://www.w3.org/Graphics/SVG/1.1/DTD/svg11.dtd">
<svg version="1.1" id="Layer_1" xmlns="http://www.w3.org/2000/svg" xmlns:xlink="http://www.w3.org/1999/xlink" x="0px" y="0px"
	 width="30px" height="30px" viewBox="241 241 30 30" enable-background="new 241 241 30 30" xml:space="preserve">
<g>
	<path fill="#FFFFFF" d="M263.999,271.076c-0.637,0-1.154-0.518-1.154-1.154c0-0.638,0.518-1.154,1.154-1.154H264
		c0-0.638,0.517-1.154,1.154-1.154s1.153,0.517,1.153,1.154C266.308,270.041,265.272,271.076,263.999,271.076z"/>
</g>
<g>
	<path fill="#FFFFFF" d="M265.153,269.922c-0.637,0-1.154-0.518-1.154-1.154v-11.32c0-0.638,0.518-1.155,1.154-1.155
		c0.638,0,1.154,0.517,1.154,1.155v11.32C266.308,269.404,265.791,269.922,265.153,269.922z"/>
</g>
<g>
	<path fill="#FFFFFF" d="M263.999,271.076h-20.778c-0.637,0-1.154-0.518-1.154-1.154c0-0.638,0.517-1.154,1.154-1.154h20.778
		c0.638,0,1.154,0.517,1.154,1.154C265.153,270.559,264.637,271.076,263.999,271.076z"/>
</g>
<g>
	<path fill="#FFFFFF" d="M243.221,271.076c-1.273,0-2.309-1.035-2.309-2.309c0-0.638,0.517-1.154,1.154-1.154
		s1.154,0.517,1.154,1.154v0.002c0.637,0,1.154,0.516,1.154,1.152C244.375,270.56,243.858,271.076,243.221,271.076z"/>
</g>
<g>
	<path fill="#FFFFFF" d="M242.067,269.922c-0.637,0-1.154-0.518-1.154-1.154v-20.777c0-0.637,0.517-1.154,1.154-1.154
		s1.154,0.517,1.154,1.154v20.777C243.221,269.404,242.704,269.922,242.067,269.922z"/>
</g>
<g>
	<path fill="#FFFFFF" d="M242.066,249.145c-0.638,0-1.154-0.517-1.154-1.154c0-1.273,1.036-2.309,2.309-2.309
		c0.637,0,1.154,0.517,1.154,1.154s-0.517,1.154-1.154,1.154h-0.001C243.22,248.628,242.704,249.145,242.066,249.145z"/>
</g>
<g>
	<path fill="#FFFFFF" d="M254.542,247.991h-11.321c-0.637,0-1.154-0.517-1.154-1.154s0.517-1.154,1.154-1.154h11.321
		c0.637,0,1.154,0.517,1.154,1.154S255.18,247.991,254.542,247.991z"/>
</g>
<g>
	<path fill="#FFFFFF" d="M253.57,255.492c-0.295,0-0.591-0.113-0.816-0.338c-0.451-0.451-0.451-1.181,0-1.632l11.274-11.273
		c0.45-0.451,1.182-0.451,1.632,0c0.451,0.451,0.451,1.182,0,1.632l-11.273,11.273C254.162,255.379,253.865,255.492,253.57,255.492
		L253.57,255.492z"/>
</g>
<g>
	<path fill="#FFFFFF" d="M252.457,260.688c-0.08,0-0.162-0.008-0.243-0.026c-0.623-0.133-1.02-0.747-0.886-1.37l1.114-5.195
		c0.133-0.624,0.749-1.023,1.371-0.887c0.623,0.133,1.021,0.748,0.886,1.37l-1.114,5.196
		C253.468,260.317,252.99,260.688,252.457,260.688L252.457,260.688z"/>
</g>
<g>
	<path fill="#FFFFFF" d="M257.651,259.572c-0.295,0-0.591-0.112-0.815-0.338c-0.451-0.451-0.451-1.182,0-1.632l11.273-11.273
		c0.45-0.451,1.182-0.451,1.632,0c0.451,0.451,0.451,1.181,0,1.632l-11.273,11.273C258.242,259.46,257.947,259.572,257.651,259.572
		L257.651,259.572z"/>
</g>
<g>
	<path fill="#FFFFFF" d="M252.455,260.688c-0.533,0-1.011-0.37-1.127-0.912c-0.133-0.623,0.263-1.237,0.886-1.37l5.196-1.115
		c0.621-0.132,1.237,0.263,1.371,0.886c0.133,0.623-0.264,1.237-0.887,1.371l-5.196,1.114
		C252.616,260.679,252.535,260.688,252.455,260.688L252.455,260.688z"/>
</g>
<g>
	<path fill="#FFFFFF" d="M266.885,250.34c-0.295,0-0.591-0.112-0.815-0.338l-4.081-4.081c-0.451-0.451-0.451-1.181,0-1.632
		c0.45-0.451,1.182-0.451,1.632,0l4.081,4.081c0.45,0.451,0.45,1.182,0,1.632C267.477,250.228,267.181,250.34,266.885,250.34
		L266.885,250.34z"/>
</g>
<g>
	<path fill="#FFFFFF" d="M268.926,248.299c-0.296,0-0.592-0.113-0.817-0.338c-0.45-0.451-0.45-1.182,0-1.632
		c0.32-0.319,0.496-0.754,0.496-1.224s-0.176-0.904-0.496-1.224c-0.641-0.641-1.81-0.641-2.448,0c-0.451,0.451-1.182,0.451-1.633,0
		c-0.451-0.451-0.451-1.182,0-1.633c0.756-0.756,1.771-1.173,2.856-1.173s2.102,0.417,2.857,1.173
		c0.755,0.755,1.171,1.77,1.171,2.856c0,1.086-0.416,2.101-1.172,2.857C269.517,248.187,269.221,248.299,268.926,248.299
		L268.926,248.299z"/>
</g>
</svg>
