<svg xmlns="http://www.w3.org/2000/svg" width="25.065" height="25.708" viewBox="0 0 25.065 25.708">
  <g id="menu" transform="translate(-35.973 -122.229)">
    <g id="Group_93" data-name="Group 93" transform="translate(35.973 122.229)">
      <g id="Group_92" data-name="Group 92" transform="translate(0 0)">
        <path id="Path_149" data-name="Path 149" d="M10.926,85.333H.643A.643.643,0,0,0,0,85.976V96.259a.642.642,0,0,0,.643.643H10.926a.642.642,0,0,0,.643-.643V85.976A.642.642,0,0,0,10.926,85.333Zm-.643,10.283h-9v-9h9v9Z" transform="translate(0 -85.333)" fill="#3a3a3a"/>
        <path id="Path_150" data-name="Path 150" d="M190.126,85.333H179.843a.642.642,0,0,0-.643.643V96.259a.643.643,0,0,0,.643.643h10.283a.642.642,0,0,0,.643-.643V85.976A.642.642,0,0,0,190.126,85.333Zm-.643,10.283h-9v-9h9v9Z" transform="translate(-165.703 -85.333)" fill="#3a3a3a"/>
        <path id="Path_152" data-name="Path 152" d="M10.926,273.067H.643A.643.643,0,0,0,0,273.71v10.283a.643.643,0,0,0,.643.643H10.926a.642.642,0,0,0,.643-.643V273.71A.642.642,0,0,0,10.926,273.067Zm-.643,10.283h-9v-9h9v9Z" transform="translate(0 -258.928)" fill="#3a3a3a"/>
        <path id="Path_153" data-name="Path 153" d="M190.126,273.067H179.843a.642.642,0,0,0-.643.643v10.283a.643.643,0,0,0,.643.643h10.283a.642.642,0,0,0,.643-.643V273.71A.642.642,0,0,0,190.126,273.067Zm-.643,10.283h-9v-9h9v9Z" transform="translate(-165.703 -258.928)" fill="#3a3a3a"/>
      </g>
    </g>
  </g>
</svg>
