<svg xmlns="http://www.w3.org/2000/svg" width="25.504" height="21.253" viewBox="0 0 25.504 21.253">
  <g id="next" transform="translate(0 -42.667)">
    <g id="Group_89" data-name="Group 89" transform="translate(0 42.667)">
      <g id="Group_88" data-name="Group 88" transform="translate(0 0)">
        <path id="Path_142" data-name="Path 142" d="M16.8,52.934.652,42.733A.425.425,0,0,0,0,43.092V63.5a.425.425,0,0,0,.652.359L16.8,53.653a.425.425,0,0,0,0-.719ZM.85,62.724V43.863l14.931,9.43Z" transform="translate(0 -42.667)" fill="#fff"/>
        <path id="Path_143" data-name="Path 143" d="M495.359,42.667a.425.425,0,0,0-.425.425V63.5a.425.425,0,0,0,.85,0v-20.4A.425.425,0,0,0,495.359,42.667Z" transform="translate(-470.28 -42.667)" fill="#fff"/>
        <path id="Path_144" data-name="Path 144" d="M392.959,42.667a.425.425,0,0,0-.425.425V63.5a.425.425,0,0,0,.85,0v-20.4A.425.425,0,0,0,392.959,42.667Z" transform="translate(-372.981 -42.667)" fill="#fff"/>
      </g>
    </g>
  </g>
</svg>
